<svg width="24" height="24" viewBox="0 0 24 24" fill="none" xmlns="http://www.w3.org/2000/svg">
<path d="M17.6666 2L21.3921 6M2.76465 22L3.95345 17.3199C4.03101 17.0145 4.06979 16.8619 4.12933 16.7195C4.18218 16.5931 4.24713 16.4729 4.32313 16.3609C4.40872 16.2348 4.51294 16.1229 4.72137 15.8991L14.3456 5.56569C14.53 5.36768 14.6223 5.26867 14.7286 5.23158C14.8221 5.19895 14.9229 5.19895 15.0164 5.23158C15.1227 5.26867 15.2149 5.36768 15.3994 5.56569L18.0711 8.43431C18.2555 8.63232 18.3477 8.73133 18.3823 8.84549C18.4127 8.94591 18.4127 9.05409 18.3823 9.15451C18.3477 9.26867 18.2555 9.36768 18.0711 9.56569L8.44686 19.8991C8.23843 20.1229 8.13421 20.2348 8.01673 20.3267C7.91243 20.4083 7.80051 20.478 7.68277 20.5348C7.55018 20.5987 7.40798 20.6403 7.1236 20.7236L2.76465 22Z" stroke="#7F7F7F" stroke-width="2" stroke-linecap="round" stroke-linejoin="round"/>
</svg>
