<svg width="24" height="22" viewBox="0 0 24 22" fill="none" xmlns="http://www.w3.org/2000/svg">
<path d="M3.61499 13.5229L10.8987 20.3651C11.1654 20.6157 11.2988 20.741 11.4584 20.7621C11.5018 20.7678 11.5458 20.7678 11.5892 20.7621C11.7488 20.741 11.8822 20.6157 12.1489 20.3651L19.4326 13.5229C21.482 11.5978 21.7308 8.42978 20.0072 6.20826L19.6831 5.79055C17.6212 3.13299 13.4825 3.57868 12.0337 6.6143C11.829 7.0431 11.2186 7.0431 11.014 6.6143C9.56515 3.57868 5.42638 3.13299 3.36448 5.79055L3.04039 6.20826C1.3168 8.42977 1.56566 11.5978 3.61499 13.5229Z" fill="#323232" stroke="#323232" stroke-width="2"/>
</svg>
