<svg width="22" height="22" viewBox="0 0 22 22" fill="none" xmlns="http://www.w3.org/2000/svg">
<path d="M10 3.86475C10 3.31246 10.4477 2.86475 11 2.86475H21C21.5523 2.86475 22 3.31246 22 3.86475V20.9628C22 21.5151 21.5523 21.9628 21 21.9628H11C10.4477 21.9628 10 21.5151 10 20.9628V3.86475Z" fill="#585858"/>
<mask id="path-2-outside-1_233_522" maskUnits="userSpaceOnUse" x="0" y="-0.386829" width="19.9219" height="23.0985" fill="black">
<rect fill="white" y="-0.386829" width="19.9219" height="23.0985"/>
<path d="M0.389663 5.21344C0.174458 4.70481 0.417706 4.13133 0.932973 3.93253L10.1932 0.359866C10.7085 0.161072 11.3007 0.412245 11.5159 0.920876L18.2287 16.7864C18.4439 17.295 18.2006 17.8685 17.6854 18.0673L8.42511 21.64C7.90984 21.8388 7.31767 21.5876 7.10247 21.079L0.389663 5.21344Z"/>
</mask>
<path d="M0.389663 5.21344C0.174458 4.70481 0.417706 4.13133 0.932973 3.93253L10.1932 0.359866C10.7085 0.161072 11.3007 0.412245 11.5159 0.920876L18.2287 16.7864C18.4439 17.295 18.2006 17.8685 17.6854 18.0673L8.42511 21.64C7.90984 21.8388 7.31767 21.5876 7.10247 21.079L0.389663 5.21344Z" fill="#585858"/>
<path d="M0 4.29248L11.1262 -8.14271e-05L0 4.29248ZM18.6019 16.6424C18.9032 17.3545 18.5626 18.1574 17.8412 18.4357L8.95416 21.8644C8.23279 22.1427 7.40376 21.791 7.10247 21.079L7.10247 21.079C7.23159 21.3841 7.75397 21.4704 8.26924 21.2716L17.5295 17.6989C17.8387 17.5796 17.9846 17.2356 17.8555 16.9304L18.6019 16.6424ZM7.49213 21.9999L0 4.29248L7.49213 21.9999ZM10.1932 0.359865C10.9146 0.081555 11.7436 0.433197 12.0449 1.14528L18.6019 16.6424C18.9032 17.3545 18.5626 18.1574 17.8412 18.4357L17.5295 17.6989C17.8387 17.5796 17.9846 17.2356 17.8555 16.9304L11.1427 1.06485C10.9275 0.556224 10.5024 0.24059 10.1932 0.359865L10.1932 0.359865Z" fill="white" mask="url(#path-2-outside-1_233_522)"/>
</svg>
